<svg xmlns="http://www.w3.org/2000/svg" viewBox="0 0 64 64"><circle cx="32" cy="32" r="32" fill="#e1efe4"/><circle cx="15" cy="18" r="9" fill="#1e2320"/><circle cx="49" cy="18" r="9" fill="#1e2320"/><ellipse cx="32" cy="36" rx="21.5" ry="19.5" fill="#fff" stroke="#1e2320" stroke-width="1.4"/><ellipse cx="23.5" cy="35" rx="5.6" ry="7.8" transform="rotate(30 23.5 35)" fill="#1e2320"/><ellipse cx="40.5" cy="35" rx="5.6" ry="7.8" transform="rotate(-30 40.5 35)" fill="#1e2320"/><circle cx="24.5" cy="34.5" r="2.3" fill="#fff"/><circle cx="39.5" cy="34.5" r="2.3" fill="#fff"/><circle cx="25" cy="35" r="1.25" fill="#1e2320"/><circle cx="39" cy="35" r="1.25" fill="#1e2320"/><ellipse cx="32" cy="42.5" rx="3" ry="2.1" fill="#1e2320"/><path d="M28.6 46.2q3.4 3 6.8 0" stroke="#1e2320" stroke-width="1.4" fill="none" stroke-linecap="round"/><path d="M11 25.5Q32 21 53 25.5" stroke="#1e2320" stroke-width="2.2" fill="none"/><circle cx="25.5" cy="23.5" r="5.3" fill="#3f9a45" stroke="#1e2320" stroke-width="1.6"/><circle cx="38.5" cy="23.5" r="5.3" fill="#3f9a45" stroke="#1e2320" stroke-width="1.6"/></svg>
